<svg xmlns="http://www.w3.org/2000/svg" viewBox="0 0 600 400" fill="none" opacity="0.04">
  <circle cx="120" cy="80" r="3" fill="#2DD4BF"/>
  <circle cx="280" cy="40" r="2.5" fill="#2DD4BF"/>
  <circle cx="450" cy="90" r="3.5" fill="#2DD4BF"/>
  <circle cx="380" cy="200" r="2" fill="#2DD4BF"/>
  <circle cx="520" cy="160" r="3" fill="#2DD4BF"/>
  <circle cx="200" cy="180" r="2.5" fill="#2DD4BF"/>
  <circle cx="340" cy="320" r="2" fill="#2DD4BF"/>
  <circle cx="100" cy="300" r="3" fill="#2DD4BF"/>
  <circle cx="500" cy="340" r="2.5" fill="#2DD4BF"/>
  <circle cx="60" cy="180" r="2" fill="#2DD4BF"/>
  <line x1="120" y1="80" x2="280" y2="40" stroke="#2DD4BF" stroke-width="0.5"/>
  <line x1="280" y1="40" x2="450" y2="90" stroke="#2DD4BF" stroke-width="0.5"/>
  <line x1="450" y1="90" x2="520" y2="160" stroke="#2DD4BF" stroke-width="0.5"/>
  <line x1="520" y1="160" x2="380" y2="200" stroke="#2DD4BF" stroke-width="0.5"/>
  <line x1="380" y1="200" x2="200" y2="180" stroke="#2DD4BF" stroke-width="0.5"/>
  <line x1="200" y1="180" x2="120" y2="80" stroke="#2DD4BF" stroke-width="0.5"/>
  <line x1="200" y1="180" x2="340" y2="320" stroke="#2DD4BF" stroke-width="0.5"/>
  <line x1="340" y1="320" x2="500" y2="340" stroke="#2DD4BF" stroke-width="0.5"/>
  <line x1="100" y1="300" x2="340" y2="320" stroke="#2DD4BF" stroke-width="0.5"/>
  <line x1="60" y1="180" x2="120" y2="80" stroke="#2DD4BF" stroke-width="0.5"/>
  <line x1="60" y1="180" x2="100" y2="300" stroke="#2DD4BF" stroke-width="0.5"/>
</svg>
